Coordinates
version=1
nRows=5
nColumns=60
inDegrees=yes

Units are S.I. units (second, meters, Newtons, ...)
If the header above contains a line with 'inDegrees', this indicates whether rotational values are in degrees (yes) or radians (no).

endheader
time	pelvis_tilt	pelvis_list	pelvis_rotation	pelvis_tx	pelvis_ty	pelvis_tz	hip_flexion_r	hip_adduction_r	hip_rotation_r	knee_angle_r_beta	knee_angle_r	ankle_angle_r	subtalar_angle_r	mtp_angle_r	hip_flexion_l	hip_adduction_l	hip_rotation_l	knee_angle_l_beta	knee_angle_l	ankle_angle_l	subtalar_angle_l	mtp_angle_l	L5_S1_Flex_Ext	L5_S1_Lat_Bending	L5_S1_axial_rotation	L4_L5_Flex_Ext	L4_L5_Lat_Bending	L4_L5_axial_rotation	L3_L4_Flex_Ext	L3_L4_Lat_Bending	L3_L4_axial_rotation	L2_L3_Flex_Ext	L2_L3_Lat_Bending	L2_L3_axial_rotation	L1_L2_Flex_Ext	L1_L2_Lat_Bending	L1_L2_axial_rotation	L1_T12_Flex_Ext	L1_T12_Lat_Bending	L1_T12_axial_rotation	Abs_r3	Abs_r2	Abs_r1	Abs_t1	Abs_t2	arm_flex_r	arm_add_r	arm_rot_r	elbow_flex_r	pro_sup_r	wrist_flex_r	wrist_dev_r	arm_flex_l	arm_add_l	arm_rot_l	elbow_flex_l	pro_sup_l	wrist_flex_l	wrist_dev_l
     32.13000000	     -0.42802172	      2.27126500	     94.27668446	      0.40135814	      0.93592152	      0.27685626	      8.67009475	     -5.53982592	     -0.22864896	      0.32123926	    -18.40565386	      8.75251835	      0.00000000	      0.00000000	      8.15049793	     -4.74104600	      1.52803505	      0.23521073	    -13.47658224	      6.64171720	      0.00000000	      0.00000000	     -6.52438870	      0.21226405	     -0.63786893	    -12.11644226	      0.28231119	     -0.67773574	    -10.71891820	      0.51609882	     -0.67773574	     -7.45672385	      0.51609882	     -0.55813531	     -6.05854735	      0.43284886	     -0.51826851	     -3.72803571	      0.32879702	     -0.47840170	    -46.60305608	      2.40117344	     -3.54763563	      0.00000000	      0.00000000	     72.56357817	    -18.41481237	     17.58368379	     49.85326995	     60.55960633	     18.78647019	     19.85571850	     82.12264880	    -19.90768930	     36.34976982	     35.07638941	     51.83513099	     28.02765403	      5.79642267
     32.14000000	     -0.38266280	      1.98920271	     94.20280415	      0.40149771	      0.93548484	      0.27952449	      9.12018701	     -5.51971818	     -0.24723688	      0.31906008	    -18.28079572	      8.73336436	      0.00000000	      0.00000000	      8.56914696	     -4.75705000	      1.52592237	      0.23314784	    -13.35838727	      6.61690921	      0.00000000	      0.00000000	     -6.57071559	      0.21065855	     -0.62701868	    -12.20247592	      0.28017588	     -0.66620734	    -10.79502864	      0.51219521	     -0.66620734	     -7.50967085	      0.51219521	     -0.54864134	     -6.10156650	      0.42957492	     -0.50945267	     -3.75450689	      0.32631010	     -0.47026401	    -46.93396438	      2.38301170	     -3.48728977	      0.00000000	      0.00000000	     73.28840944	    -18.32779198	     17.46986227	     49.95555441	     60.56240644	     18.77636190	     19.83701288	     82.81309908	    -19.85777159	     36.22669403	     35.18471454	     51.82422301	     28.01917436	      5.78121477
     32.15000000	     -0.23789718	      1.65215157	     94.05652285	      0.40183610	      0.93492300	      0.28241166	      9.79651278	     -5.33990621	      0.19078310	      0.32172743	    -18.43362396	      8.32346819	      0.00000000	      0.00000000	      9.13343165	     -4.89021269	      1.74156865	      0.23398276	    -13.40622442	      6.27368934	      0.00000000	      0.00000000	     -6.60390666	      0.21563155	     -0.60065730	    -12.26411507	      0.28678996	     -0.63819838	    -10.84955826	      0.52428655	     -0.63819838	     -7.54760493	      0.52428655	     -0.52557514	     -6.13238773	      0.43971585	     -0.48803406	     -3.77347227	      0.33401327	     -0.45049298	    -47.17104491	      2.43926720	     -3.34067571	      0.00000000	      0.00000000	     74.06423908	    -18.12759706	     17.25076360	     49.86861604	     60.56643480	     18.70929430	     19.89342666	     83.44484258	    -19.79393044	     35.97705971	     35.22861847	     51.73613990	     28.00080020	      5.84699652
     32.16000000	     -0.20028551	      1.39598583	     93.97492117	      0.40196713	      0.93442879	      0.28498460	     10.22277610	     -5.32413916	      0.15965187	      0.31977000	    -18.32147116	      8.31177529	      0.00000000	      0.00000000	      9.51767619	     -4.90109374	      1.71379897	      0.23192983	    -13.28860036	      6.27432604	      0.00000000	      0.00000000	     -6.64235464	      0.21231677	     -0.59021718	    -12.33551680	      0.28238131	     -0.62710575	    -10.91272444	      0.51622700	     -0.62710575	     -7.59154712	      0.51622700	     -0.51644003	     -6.16809052	      0.43295636	     -0.47955146	     -3.79544144	      0.32887868	     -0.44266288	    -47.44567495	      2.40176980	     -3.28261088	      0.00000000	      0.00000000	     74.68467484	    -18.03396665	     17.12256375	     49.98073838	     60.56257126	     18.69681098	     19.88669756	     84.00178239	    -19.74366044	     35.82018665	     35.33027193	     51.70445037	     27.99435327	      5.84108072
     32.17000000	     -0.06494606	      0.68828888	     93.77151530	      0.40239218	      0.93320043	      0.28793376	     11.40102428	     -5.15691614	      0.70017806	      0.32505660	    -18.62437150	      7.85751638	      0.00000000	      0.00000000	     10.53460422	     -5.01489885	      1.75118975	      0.23445376	    -13.43321099	      5.96235934	      0.00000000	      0.00000000	     -6.60219029	      0.21260042	     -0.55966448	    -12.26092759	      0.28275856	     -0.59464351	    -10.84673843	      0.51691666	     -0.59464351	     -7.54564328	      0.51691666	     -0.48970642	     -6.13079390	      0.43353478	     -0.45472739	     -3.77249153	      0.32931805	     -0.41974836	    -47.15878502	      2.40497848	     -3.11268594	      0.00000000	      0.00000000	     75.19693841	    -17.66524467	     16.34988674	     49.79960356	     60.58627853	     18.51512861	     20.29396606	     84.17538549	    -19.62525865	     34.55875628	     35.52812825	     51.17539194	     27.99354762	      6.24688019
